# xmcd CD database file
#
# Track frame offsets:
#	150
#	10647
#	20080
#	34025
#	50265
#	61005
#	77327
#	86540
#	105850
#	117785
#	131627
#
# Disc length: 1931 seconds
#
# Revision: 1
# Processed by: cddbd v1.5.2PL0 Copyright (c) Steve Scherf et al.
# Submitted via: CDex 1.79
#
DISCID=7107890b
DTITLE=Tom T Hall - Home Grown
DYEAR=1997
DGENRE=Country
TTITLE0=Bill Monroe For Breakfast
TTITLE1=The Beautiful River Of Life
TTITLE2=Legend Of tThe Lady Bear
TTITLE3=Royal Annie
TTITLE4=Waiting On The Other Shoe To Fall
TTITLE5=Local Flowers
TTITLE6=Watertown, Tennessee
TTITLE7=The Way I've Always Been
TTITLE8=Life Don't Have To Mean Nothing At All
TTITLE9=Back When The Old Homeplace Was New
TTITLE10=What A Song
EXTD=YEAR: 1997
EXTT0=
EXTT1=
EXTT2=
EXTT3=
EXTT4=
EXTT5=
EXTT6=
EXTT7=
EXTT8=
EXTT9=
EXTT10=
PLAYORDER=
